<mxfile host="drawio-plugin" modified="2022-08-04T10:26:40.492Z" agent="5.0 (Windows NT 6.2; Win64; x64) AppleWebKit/537.36 (KHTML, like Gecko) Chrome/98.0.4758.102 Safari/537.36" etag="Wep3FPx4N4I3yvQpdI-i" version="15.5.4" type="embed"><diagram id="1JwUR0z12pEJjB_vSHvX" name="Page-1"><mxGraphModel dx="2037" dy="1033" grid="1" gridSize="10" guides="1" tooltips="1" connect="1" arrows="1" fold="1" page="1" pageScale="1" pageWidth="827" pageHeight="1169" math="0" shadow="0"><root><mxCell id="0"/><mxCell id="1" parent="0"/><mxCell id="Uf8CD3yDlGTyFXg8vLHg-14" value="Users" style="swimlane;fontStyle=0;childLayout=stackLayout;horizontal=1;startSize=26;horizontalStack=0;resizeParent=1;resizeParentMax=0;resizeLast=0;collapsible=1;marginBottom=0;align=center;fontSize=14;" parent="1" vertex="1"><mxGeometry x="30" y="500" width="160" height="176" as="geometry"/></mxCell><mxCell id="Uf8CD3yDlGTyFXg8vLHg-15" value="userId LONG" style="text;strokeColor=none;fillColor=none;spacingLeft=4;spacingRight=4;overflow=hidden;rotatable=0;points=[[0,0.5],[1,0.5]];portConstraint=eastwest;fontSize=12;" parent="Uf8CD3yDlGTyFXg8vLHg-14" vertex="1"><mxGeometry y="26" width="160" height="30" as="geometry"/></mxCell><mxCell id="Uf8CD3yDlGTyFXg8vLHg-17" value="username STRING" style="text;strokeColor=none;fillColor=none;spacingLeft=4;spacingRight=4;overflow=hidden;rotatable=0;points=[[0,0.5],[1,0.5]];portConstraint=eastwest;fontSize=12;" parent="Uf8CD3yDlGTyFXg8vLHg-14" vertex="1"><mxGeometry y="56" width="160" height="30" as="geometry"/></mxCell><mxCell id="Uf8CD3yDlGTyFXg8vLHg-18" value="password STRING" style="text;strokeColor=none;fillColor=none;spacingLeft=4;spacingRight=4;overflow=hidden;rotatable=0;points=[[0,0.5],[1,0.5]];portConstraint=eastwest;fontSize=12;" parent="Uf8CD3yDlGTyFXg8vLHg-14" vertex="1"><mxGeometry y="86" width="160" height="30" as="geometry"/></mxCell><mxCell id="6KfbbJlcm5uRU22GD8xY-6" value="trails LIST&lt;Trails&gt;" style="text;strokeColor=none;fillColor=none;spacingLeft=4;spacingRight=4;overflow=hidden;rotatable=0;points=[[0,0.5],[1,0.5]];portConstraint=eastwest;fontSize=12;" parent="Uf8CD3yDlGTyFXg8vLHg-14" vertex="1"><mxGeometry y="116" width="160" height="30" as="geometry"/></mxCell><mxCell id="6KfbbJlcm5uRU22GD8xY-7" value="roles LIST&lt;Roles&gt;" style="text;strokeColor=none;fillColor=none;spacingLeft=4;spacingRight=4;overflow=hidden;rotatable=0;points=[[0,0.5],[1,0.5]];portConstraint=eastwest;fontSize=12;" parent="Uf8CD3yDlGTyFXg8vLHg-14" vertex="1"><mxGeometry y="146" width="160" height="30" as="geometry"/></mxCell><mxCell id="622MD_0rTVzlw3VsZqPc-3" value="Trails" style="swimlane;fontStyle=0;childLayout=stackLayout;horizontal=1;startSize=26;horizontalStack=0;resizeParent=1;resizeParentMax=0;resizeLast=0;collapsible=1;marginBottom=0;align=center;fontSize=14;" parent="1" vertex="1"><mxGeometry x="280" y="500" width="170" height="146" as="geometry"/></mxCell><mxCell id="622MD_0rTVzlw3VsZqPc-4" value="trailId LONG" style="text;strokeColor=none;fillColor=none;spacingLeft=4;spacingRight=4;overflow=hidden;rotatable=0;points=[[0,0.5],[1,0.5]];portConstraint=eastwest;fontSize=12;" parent="622MD_0rTVzlw3VsZqPc-3" vertex="1"><mxGeometry y="26" width="170" height="30" as="geometry"/></mxCell><mxCell id="622MD_0rTVzlw3VsZqPc-5" value="title STRING" style="text;strokeColor=none;fillColor=none;spacingLeft=4;spacingRight=4;overflow=hidden;rotatable=0;points=[[0,0.5],[1,0.5]];portConstraint=eastwest;fontSize=12;" parent="622MD_0rTVzlw3VsZqPc-3" vertex="1"><mxGeometry y="56" width="170" height="30" as="geometry"/></mxCell><mxCell id="622MD_0rTVzlw3VsZqPc-6" value="time_update LocalDateTime" style="text;strokeColor=none;fillColor=none;spacingLeft=4;spacingRight=4;overflow=hidden;rotatable=0;points=[[0,0.5],[1,0.5]];portConstraint=eastwest;fontSize=12;" parent="622MD_0rTVzlw3VsZqPc-3" vertex="1"><mxGeometry y="86" width="170" height="30" as="geometry"/></mxCell><mxCell id="622MD_0rTVzlw3VsZqPc-7" value="user Users" style="text;strokeColor=none;fillColor=none;spacingLeft=4;spacingRight=4;overflow=hidden;rotatable=0;points=[[0,0.5],[1,0.5]];portConstraint=eastwest;fontSize=12;" parent="622MD_0rTVzlw3VsZqPc-3" vertex="1"><mxGeometry y="116" width="170" height="30" as="geometry"/></mxCell><mxCell id="622MD_0rTVzlw3VsZqPc-8" value="" style="edgeStyle=entityRelationEdgeStyle;fontSize=12;html=1;endArrow=ERoneToMany;rounded=0;exitX=1;exitY=0.5;exitDx=0;exitDy=0;" parent="1" source="6KfbbJlcm5uRU22GD8xY-6" target="622MD_0rTVzlw3VsZqPc-7" edge="1"><mxGeometry width="100" height="100" relative="1" as="geometry"><mxPoint x="130" y="601" as="sourcePoint"/><mxPoint x="270" y="510" as="targetPoint"/></mxGeometry></mxCell><mxCell id="6KfbbJlcm5uRU22GD8xY-1" value="Roles" style="swimlane;fontStyle=0;childLayout=stackLayout;horizontal=1;startSize=26;horizontalStack=0;resizeParent=1;resizeParentMax=0;resizeLast=0;collapsible=1;marginBottom=0;align=center;fontSize=14;" parent="1" vertex="1"><mxGeometry x="-400" y="500" width="160" height="86" as="geometry"/></mxCell><mxCell id="6KfbbJlcm5uRU22GD8xY-2" value="roleId LONG" style="text;strokeColor=none;fillColor=none;spacingLeft=4;spacingRight=4;overflow=hidden;rotatable=0;points=[[0,0.5],[1,0.5]];portConstraint=eastwest;fontSize=12;" parent="6KfbbJlcm5uRU22GD8xY-1" vertex="1"><mxGeometry y="26" width="160" height="30" as="geometry"/></mxCell><mxCell id="6KfbbJlcm5uRU22GD8xY-3" value="name STRING" style="text;strokeColor=none;fillColor=none;spacingLeft=4;spacingRight=4;overflow=hidden;rotatable=0;points=[[0,0.5],[1,0.5]];portConstraint=eastwest;fontSize=12;" parent="6KfbbJlcm5uRU22GD8xY-1" vertex="1"><mxGeometry y="56" width="160" height="30" as="geometry"/></mxCell><mxCell id="mEiXrwu-TuFM0znLEdWo-2" value="user_roles" style="swimlane;fontStyle=0;childLayout=stackLayout;horizontal=1;startSize=26;horizontalStack=0;resizeParent=1;resizeParentMax=0;resizeLast=0;collapsible=1;marginBottom=0;align=center;fontSize=14;" parent="1" vertex="1"><mxGeometry x="-190" y="370" width="160" height="86" as="geometry"/></mxCell><mxCell id="mEiXrwu-TuFM0znLEdWo-4" value="user_id LONG&#10;" style="text;strokeColor=none;fillColor=none;spacingLeft=4;spacingRight=4;overflow=hidden;rotatable=0;points=[[0,0.5],[1,0.5]];portConstraint=eastwest;fontSize=12;" parent="mEiXrwu-TuFM0znLEdWo-2" vertex="1"><mxGeometry y="26" width="160" height="30" as="geometry"/></mxCell><mxCell id="mEiXrwu-TuFM0znLEdWo-5" value="role_id LONG" style="text;strokeColor=none;fillColor=none;spacingLeft=4;spacingRight=4;overflow=hidden;rotatable=0;points=[[0,0.5],[1,0.5]];portConstraint=eastwest;fontSize=12;" parent="mEiXrwu-TuFM0znLEdWo-2" vertex="1"><mxGeometry y="56" width="160" height="30" as="geometry"/></mxCell><mxCell id="mEiXrwu-TuFM0znLEdWo-6" value="" style="edgeStyle=entityRelationEdgeStyle;fontSize=12;html=1;endArrow=ERoneToMany;rounded=0;entryX=1;entryY=0.5;entryDx=0;entryDy=0;" parent="1" source="Uf8CD3yDlGTyFXg8vLHg-15" target="mEiXrwu-TuFM0znLEdWo-4" edge="1"><mxGeometry width="100" height="100" relative="1" as="geometry"><mxPoint x="-180" y="550" as="sourcePoint"/><mxPoint x="-120" y="493" as="targetPoint"/></mxGeometry></mxCell><mxCell id="mEiXrwu-TuFM0znLEdWo-7" value="" style="edgeStyle=entityRelationEdgeStyle;fontSize=12;html=1;endArrow=ERoneToMany;rounded=0;exitX=1;exitY=0.5;exitDx=0;exitDy=0;" parent="1" source="6KfbbJlcm5uRU22GD8xY-2" target="mEiXrwu-TuFM0znLEdWo-5" edge="1"><mxGeometry width="100" height="100" relative="1" as="geometry"><mxPoint x="-250" y="600" as="sourcePoint"/><mxPoint x="-150" y="500" as="targetPoint"/></mxGeometry></mxCell></root></mxGraphModel></diagram></mxfile>